<svg width="16" height="12" viewBox="0 0 16 12" fill="none" xmlns="http://www.w3.org/2000/svg">
<path d="M3.33331 1.5V10.5H7.33331V8.75H8.66665V10.5H12.6666V1.5H3.33331ZM4.66665 2.5H5.99998V3.5H4.66665V2.5ZM7.33331 2.5H8.66665V3.5H7.33331V2.5ZM9.99998 2.5H11.3333V3.5H9.99998V2.5ZM4.66665 4.5H5.99998V5.5H4.66665V4.5ZM7.33331 4.5H8.66665V5.5H7.33331V4.5ZM9.99998 4.5H11.3333V5.5H9.99998V4.5ZM4.66665 6.5H5.99998V7.5H4.66665V6.5ZM7.33331 6.5H8.66665V7.5H7.33331V6.5ZM9.99998 6.5H11.3333V7.5H9.99998V6.5ZM4.66665 8.5H5.99998V9.5H4.66665V8.5ZM9.99998 8.5H11.3333V9.5H9.99998V8.5Z" fill="#A7A7A7"/>
</svg>
