<svg width="79" height="48" viewBox="0 0 79 48" fill="none" xmlns="http://www.w3.org/2000/svg">
<path d="M10.2277 0V3.11647C9.36829 3.11647 8.69778 3.23924 8.21614 3.48478C7.7345 3.72087 7.52674 4.19778 7.59285 4.91552L8.03199 9.09441C8.14531 10.1521 8.02726 11.0068 7.67784 11.6584C7.33786 12.31 6.81373 12.8106 6.10544 13.16C5.4066 13.5 4.58026 13.7408 3.62643 13.8824C4.63692 14.0335 5.49159 14.2791 6.19044 14.6191C6.88928 14.959 7.39925 15.4501 7.72034 16.0923C8.04143 16.7345 8.14531 17.5939 8.03199 18.6705L7.59285 22.8494C7.52674 23.5671 7.7345 24.044 8.21614 24.2801C8.69778 24.5256 9.36829 24.6484 10.2277 24.6484V27.7649C7.62118 27.7649 5.78907 27.3682 4.73136 26.575C3.6831 25.7911 3.25812 24.4454 3.45644 22.5377L3.88142 18.4863C3.95697 17.7686 3.8342 17.2067 3.51311 16.8006C3.20146 16.3945 2.73871 16.1112 2.12486 15.9506C1.51101 15.7807 0.802726 15.6957 0 15.6957V12.0692C0.793282 12.0692 1.49685 11.9889 2.1107 11.8284C2.72455 11.6584 3.19202 11.3704 3.51311 10.9643C3.8342 10.5582 3.95697 9.9963 3.88142 9.27857L3.45644 5.25549C3.24868 3.31006 3.67365 1.95015 4.73136 1.17576C5.78907 0.391919 7.62118 0 10.2277 0Z" fill="url(#paint0_linear_3_20)"/>
<path d="M22.5052 3.66893C24.8473 3.66893 26.6133 4.57554 27.8032 6.38875C29.0026 8.19253 29.6023 10.7093 29.6023 13.9391C29.6023 17.1783 29.0026 19.714 27.8032 21.5461C26.6133 23.3688 24.8473 24.2801 22.5052 24.2801C20.1443 24.2801 18.3688 23.3688 17.1789 21.5461C15.9984 19.714 15.4082 17.1783 15.4082 13.9391C15.4082 10.7093 15.9984 8.19253 17.1789 6.38875C18.3688 4.57554 20.1443 3.66893 22.5052 3.66893ZM22.5052 6.91289C21.5042 6.91289 20.7723 7.45119 20.3095 8.52778C19.8468 9.59494 19.6154 11.3987 19.6154 13.9391C19.6154 14.7702 19.6296 15.5115 19.6579 16.1631C19.6863 16.8053 19.7288 17.3767 19.7854 17.8772L24.5734 7.86199C24.3468 7.50313 24.0635 7.25759 23.7235 7.12537C23.393 6.98372 22.9869 6.91289 22.5052 6.91289ZM25.3667 13.9391C25.3667 12.8531 25.3431 11.937 25.2959 11.1909L20.777 20.5262C20.9848 20.7245 21.2303 20.8614 21.5136 20.937C21.8064 21.0125 22.1369 21.0503 22.5052 21.0503C23.1758 21.0503 23.7188 20.8237 24.1343 20.3704C24.5593 19.9171 24.8709 19.171 25.0692 18.1322C25.2676 17.0839 25.3667 15.6862 25.3667 13.9391Z" fill="url(#paint1_linear_3_20)"/>
<path d="M39.5 3.66893C41.8421 3.66893 43.6081 4.57554 44.798 6.38875C45.9974 8.19253 46.597 10.7093 46.597 13.9391C46.597 17.1783 45.9974 19.714 44.798 21.5461C43.6081 23.3688 41.8421 24.2801 39.5 24.2801C37.139 24.2801 35.3636 23.3688 34.1737 21.5461C32.9932 19.714 32.403 17.1783 32.403 13.9391C32.403 10.7093 32.9932 8.19253 34.1737 6.38875C35.3636 4.57554 37.139 3.66893 39.5 3.66893ZM39.5 6.91289C38.499 6.91289 37.7671 7.45119 37.3043 8.52778C36.8416 9.59494 36.6102 11.3987 36.6102 13.9391C36.6102 14.7702 36.6244 15.5115 36.6527 16.1631C36.681 16.8053 36.7235 17.3767 36.7802 17.8772L41.5682 7.86199C41.3415 7.50313 41.0582 7.25759 40.7183 7.12537C40.3877 6.98372 39.9816 6.91289 39.5 6.91289ZM42.3615 13.9391C42.3615 12.8531 42.3379 11.937 42.2907 11.1909L37.7718 20.5262C37.9795 20.7245 38.2251 20.8614 38.5084 20.937C38.8012 21.0125 39.1317 21.0503 39.5 21.0503C40.1705 21.0503 40.7135 20.8237 41.1291 20.3704C41.554 19.9171 41.8657 19.171 42.064 18.1322C42.2623 17.0839 42.3615 15.6862 42.3615 13.9391Z" fill="url(#paint2_linear_3_20)"/>
<path d="M55.4748 24.2518L51.2251 22.9344L58.5488 7.53618H49.9218V4.16473H63.0818V7.1962L55.4748 24.2518Z" fill="url(#paint3_linear_3_20)"/>
<path d="M68.7723 0C71.3788 0 73.2062 0.391919 74.2545 1.17576C75.3122 1.9596 75.7419 3.31006 75.5436 5.22716L75.1186 9.27857C75.043 9.9963 75.1658 10.5582 75.4869 10.9643C75.808 11.3704 76.2707 11.6584 76.8751 11.8284C77.489 11.9889 78.1973 12.0692 79 12.0692V15.6957C78.2067 15.6957 77.5032 15.7807 76.8893 15.9506C76.2755 16.1112 75.808 16.3945 75.4869 16.8006C75.1658 17.2067 75.043 17.7686 75.1186 18.4863L75.5436 22.5094C75.7608 24.4454 75.3358 25.8053 74.2686 26.5891C73.2109 27.373 71.3788 27.7649 68.7723 27.7649V24.6484C69.6412 24.6484 70.3164 24.5256 70.798 24.2801C71.2797 24.044 71.4827 23.5671 71.4072 22.8494L70.968 18.6705C70.8547 17.6033 70.968 16.7486 71.308 16.1065C71.6574 15.4548 72.1863 14.959 72.8946 14.6191C73.6028 14.2696 74.4339 14.0241 75.3877 13.8824C74.3772 13.7313 73.5179 13.4858 72.8096 13.1458C72.1107 12.8058 71.6008 12.3148 71.2797 11.6726C70.9586 11.021 70.8547 10.1616 70.968 9.09441L71.4072 4.91552C71.4827 4.19778 71.2749 3.72087 70.7839 3.48478C70.3022 3.23924 69.6317 3.11647 68.7723 3.11647V0Z" fill="url(#paint4_linear_3_20)"/>
<path d="M9.99677 34.3013C10.7844 34.3013 11.419 34.4968 11.9006 34.8878C12.3823 35.2787 12.7336 35.8312 12.9546 36.5452C13.1812 37.2591 13.2946 38.1062 13.2946 39.0865C13.2946 40.0158 13.1586 40.8459 12.8866 41.5768C12.6146 42.3021 12.2208 42.8744 11.7052 43.2937C11.1895 43.7074 10.5634 43.9142 9.82678 43.9142C8.9485 43.9142 8.23454 43.5997 7.68491 42.9707V47.11L4.99908 47.3905V34.5988H7.37893L7.49793 35.6102C7.86624 35.1399 8.26854 34.8056 8.70485 34.6073C9.14115 34.4033 9.57179 34.3013 9.99677 34.3013ZM9.16382 36.2817C8.85217 36.2817 8.57736 36.3752 8.33937 36.5622C8.10139 36.7491 7.88323 37.0041 7.68491 37.3271V41.1349C7.8719 41.4125 8.06739 41.6165 8.27138 41.7468C8.48103 41.8771 8.72751 41.9423 9.01083 41.9423C9.4868 41.9423 9.85794 41.727 10.1243 41.2963C10.3906 40.86 10.5237 40.1348 10.5237 39.1205C10.5237 38.3725 10.4699 37.7946 10.3622 37.3866C10.2546 36.973 10.0988 36.6868 9.89477 36.5282C9.69078 36.3638 9.44713 36.2817 9.16382 36.2817Z" fill="url(#paint5_linear_3_20)"/>
<path d="M22.7945 41.0244C22.7945 41.3643 22.8398 41.6108 22.9305 41.7638C23.0268 41.9168 23.1798 42.033 23.3894 42.1123L22.837 43.8802C22.3043 43.8292 21.8539 43.713 21.4855 43.5317C21.1229 43.3447 20.8368 43.0642 20.6271 42.6903C20.2815 43.1039 19.8395 43.4127 19.3012 43.6167C18.7629 43.815 18.2133 43.9142 17.6523 43.9142C16.723 43.9142 15.9807 43.6507 15.4254 43.1237C14.8758 42.5911 14.601 41.9083 14.601 41.0754C14.601 40.0951 14.9835 39.3386 15.7484 38.806C16.519 38.2734 17.6013 38.0071 18.9952 38.0071H20.2106V37.6671C20.2106 36.7435 19.6157 36.2817 18.4257 36.2817C18.1368 36.2817 17.7656 36.3242 17.3123 36.4092C16.859 36.4885 16.4057 36.6046 15.9524 36.7576L15.3319 34.9728C15.9156 34.7518 16.5219 34.5846 17.1508 34.4713C17.7854 34.358 18.3521 34.3013 18.8507 34.3013C20.1936 34.3013 21.1852 34.5761 21.8255 35.1257C22.4715 35.6697 22.7945 36.4573 22.7945 37.4886V41.0244ZM18.5787 41.9933C18.8677 41.9933 19.1709 41.9083 19.4882 41.7383C19.8055 41.5627 20.0463 41.3162 20.2106 40.9989V39.537H19.5477C18.7997 39.537 18.2501 39.6531 17.8988 39.8854C17.5475 40.1121 17.3718 40.4464 17.3718 40.8884C17.3718 41.234 17.4766 41.506 17.6863 41.7043C17.9016 41.897 18.1991 41.9933 18.5787 41.9933Z" fill="url(#paint6_linear_3_20)"/>
<path d="M33.9093 34.5988L30.9005 43.6252H27.7387L24.6958 34.5988H27.5942L29.3536 41.5683L31.1894 34.5988H33.9093Z" fill="url(#paint7_linear_3_20)"/>
<path d="M43.1882 41.0244C43.1882 41.3643 43.2335 41.6108 43.3242 41.7638C43.4205 41.9168 43.5735 42.033 43.7831 42.1123L43.2307 43.8802C42.698 43.8292 42.2476 43.713 41.8793 43.5317C41.5166 43.3447 41.2305 43.0642 41.0208 42.6903C40.6752 43.1039 40.2332 43.4127 39.6949 43.6167C39.1566 43.815 38.607 43.9142 38.046 43.9142C37.1167 43.9142 36.3744 43.6507 35.8191 43.1237C35.2695 42.5911 34.9947 41.9083 34.9947 41.0754C34.9947 40.0951 35.3772 39.3386 36.1421 38.806C36.9127 38.2734 37.995 38.0071 39.3889 38.0071H40.6043V37.6671C40.6043 36.7435 40.0094 36.2817 38.8195 36.2817C38.5305 36.2817 38.1593 36.3242 37.706 36.4092C37.2527 36.4885 36.7994 36.6046 36.3461 36.7576L35.7257 34.9728C36.3093 34.7518 36.9156 34.5846 37.5445 34.4713C38.1792 34.358 38.7458 34.3013 39.2444 34.3013C40.5873 34.3013 41.5789 34.5761 42.2192 35.1257C42.8652 35.6697 43.1882 36.4573 43.1882 37.4886V41.0244ZM38.9724 41.9933C39.2614 41.9933 39.5646 41.9083 39.8819 41.7383C40.1992 41.5627 40.44 41.3162 40.6043 40.9989V39.537H39.9414C39.1934 39.537 38.6438 39.6531 38.2925 39.8854C37.9412 40.1121 37.7655 40.4464 37.7655 40.8884C37.7655 41.234 37.8704 41.506 38.08 41.7043C38.2953 41.897 38.5928 41.9933 38.9724 41.9933Z" fill="url(#paint8_linear_3_20)"/>
<path d="M45.7865 43.6252V34.5988H48.1324L48.3194 35.6442C48.7217 35.1909 49.1466 34.8538 49.5943 34.6328C50.0419 34.4118 50.5519 34.3013 51.1242 34.3013C51.8948 34.3013 52.5011 34.5364 52.9431 35.0068C53.385 35.4771 53.606 36.14 53.606 36.9956V43.6252H50.9202V37.7691C50.9202 37.2138 50.8579 36.8285 50.7332 36.6131C50.6142 36.3922 50.3876 36.2817 50.0532 36.2817C49.7699 36.2817 49.498 36.3723 49.2373 36.5537C48.9823 36.735 48.7273 36.9871 48.4724 37.3101V43.6252H45.7865Z" fill="url(#paint9_linear_3_20)"/>
<path d="M62.6555 34.3013C63.2957 34.3013 63.7689 34.511 64.0749 34.9303C64.3865 35.3439 64.5423 36.0154 64.5423 36.9446V43.6252H62.239V37.2506C62.239 36.9333 62.2078 36.7095 62.1455 36.5792C62.0888 36.4488 61.9698 36.3837 61.7885 36.3837C61.6469 36.3837 61.4995 36.4262 61.3465 36.5112C61.1992 36.5905 61.0349 36.7435 60.8536 36.9701V43.6252H58.9667V37.2506C58.9667 36.9333 58.9355 36.7095 58.8732 36.5792C58.8165 36.4488 58.6975 36.3837 58.5162 36.3837C58.3746 36.3837 58.2272 36.4262 58.0742 36.5112C57.9269 36.5905 57.7626 36.7435 57.5813 36.9701V43.6252H55.2439V34.5988H57.2158L57.3943 35.4742C57.6776 35.0889 57.9638 34.7971 58.2527 34.5988C58.5417 34.4005 58.8845 34.3013 59.2812 34.3013C59.6211 34.3013 59.9101 34.3891 60.1481 34.5648C60.3918 34.7348 60.5646 35.0039 60.6666 35.3722C60.9386 35.0549 61.2389 34.7971 61.5675 34.5988C61.8962 34.4005 62.2588 34.3013 62.6555 34.3013Z" fill="url(#paint10_linear_3_20)"/>
<path d="M74.1952 33.1539L74.8242 35.1257C74.5069 35.2504 74.1357 35.3411 73.7108 35.3977C73.2858 35.4544 72.79 35.4827 72.2234 35.4827C72.79 35.7264 73.2206 36.0295 73.5153 36.3922C73.8156 36.7491 73.9657 37.2194 73.9657 37.8031C73.9657 38.3867 73.8099 38.908 73.4983 39.367C73.1866 39.8203 72.7447 40.1773 72.1724 40.4379C71.6001 40.6986 70.9229 40.8289 70.141 40.8289C69.767 40.8289 69.4185 40.7949 69.0956 40.7269C68.9992 40.7779 68.9256 40.8515 68.8746 40.9479C68.8236 41.0442 68.7981 41.1434 68.7981 41.2454C68.7981 41.387 68.8547 41.5145 68.9681 41.6278C69.0871 41.7412 69.3619 41.7978 69.7925 41.7978H71.2714C71.974 41.7978 72.5803 41.9111 73.0903 42.1378C73.6059 42.3644 74.0054 42.6733 74.2887 43.0642C74.572 43.4552 74.7137 43.9029 74.7137 44.4072C74.7137 45.3308 74.3086 46.0589 73.4983 46.5915C72.688 47.1241 71.4839 47.3905 69.886 47.3905C68.7301 47.3905 67.8348 47.2715 67.2002 47.0335C66.5712 46.8012 66.1321 46.4669 65.8828 46.0305C65.6391 45.5999 65.5173 45.0871 65.5173 44.4921H67.8971C67.8971 44.7528 67.9481 44.9653 68.0501 45.1296C68.1578 45.2996 68.3589 45.4243 68.6536 45.5036C68.9539 45.5829 69.3874 45.6226 69.954 45.6226C70.5263 45.6226 70.9626 45.5772 71.2629 45.4866C71.5632 45.3959 71.7672 45.2713 71.8749 45.1126C71.9882 44.9596 72.0449 44.7868 72.0449 44.5941C72.0449 44.3278 71.94 44.1125 71.7304 43.9482C71.5207 43.7839 71.1893 43.7017 70.7359 43.7017H69.2995C68.3249 43.7017 67.6166 43.5232 67.1747 43.1662C66.7327 42.8036 66.5117 42.3814 66.5117 41.8998C66.5117 41.5655 66.5995 41.2482 66.7752 40.9479C66.9565 40.6476 67.2087 40.3954 67.5317 40.1914C66.9537 39.8854 66.54 39.5256 66.2907 39.112C66.0414 38.6927 65.9168 38.1912 65.9168 37.6076C65.9168 36.9276 66.0896 36.344 66.4352 35.8567C66.7809 35.3637 67.2568 34.9841 67.8631 34.7178C68.4751 34.4515 69.1721 34.3183 69.954 34.3183C70.6283 34.3296 71.2148 34.2843 71.7134 34.1823C72.212 34.0746 72.6597 33.9302 73.0563 33.7488C73.4529 33.5618 73.8326 33.3635 74.1952 33.1539ZM70.022 36.0607C69.597 36.0607 69.2599 36.1967 69.0106 36.4687C68.7612 36.735 68.6366 37.1033 68.6366 37.5736C68.6366 38.0722 68.7641 38.4547 69.0191 38.721C69.274 38.9873 69.6084 39.1205 70.022 39.1205C70.9399 39.1205 71.3989 38.5935 71.3989 37.5396C71.3989 36.5537 70.9399 36.0607 70.022 36.0607Z" fill="url(#paint11_linear_3_20)"/>
<defs>
<linearGradient id="paint0_linear_3_20" x1="-1.66963" y1="29.9023" x2="81.4006" y2="0.496942" gradientUnits="userSpaceOnUse">
<stop stop-color="#00C0FD"/>
<stop offset="1" stop-color="#E70FAA"/>
</linearGradient>
<linearGradient id="paint1_linear_3_20" x1="-1.66963" y1="29.9023" x2="81.4006" y2="0.496942" gradientUnits="userSpaceOnUse">
<stop stop-color="#00C0FD"/>
<stop offset="1" stop-color="#E70FAA"/>
</linearGradient>
<linearGradient id="paint2_linear_3_20" x1="-1.66963" y1="29.9023" x2="81.4006" y2="0.496942" gradientUnits="userSpaceOnUse">
<stop stop-color="#00C0FD"/>
<stop offset="1" stop-color="#E70FAA"/>
</linearGradient>
<linearGradient id="paint3_linear_3_20" x1="-1.66963" y1="29.9023" x2="81.4006" y2="0.496942" gradientUnits="userSpaceOnUse">
<stop stop-color="#00C0FD"/>
<stop offset="1" stop-color="#E70FAA"/>
</linearGradient>
<linearGradient id="paint4_linear_3_20" x1="-1.66963" y1="29.9023" x2="81.4006" y2="0.496942" gradientUnits="userSpaceOnUse">
<stop stop-color="#00C0FD"/>
<stop offset="1" stop-color="#E70FAA"/>
</linearGradient>
<linearGradient id="paint5_linear_3_20" x1="-0.199074" y1="48.281" x2="76.2549" y2="32.108" gradientUnits="userSpaceOnUse">
<stop stop-color="#13B0F5"/>
<stop offset="1" stop-color="#CA24B4"/>
</linearGradient>
<linearGradient id="paint6_linear_3_20" x1="-0.199074" y1="48.281" x2="76.2549" y2="32.108" gradientUnits="userSpaceOnUse">
<stop stop-color="#13B0F5"/>
<stop offset="1" stop-color="#CA24B4"/>
</linearGradient>
<linearGradient id="paint7_linear_3_20" x1="-0.199074" y1="48.281" x2="76.2549" y2="32.108" gradientUnits="userSpaceOnUse">
<stop stop-color="#13B0F5"/>
<stop offset="1" stop-color="#CA24B4"/>
</linearGradient>
<linearGradient id="paint8_linear_3_20" x1="-0.199074" y1="48.281" x2="76.2549" y2="32.108" gradientUnits="userSpaceOnUse">
<stop stop-color="#13B0F5"/>
<stop offset="1" stop-color="#CA24B4"/>
</linearGradient>
<linearGradient id="paint9_linear_3_20" x1="-0.199074" y1="48.281" x2="76.2549" y2="32.108" gradientUnits="userSpaceOnUse">
<stop stop-color="#13B0F5"/>
<stop offset="1" stop-color="#CA24B4"/>
</linearGradient>
<linearGradient id="paint10_linear_3_20" x1="-0.199074" y1="48.281" x2="76.2549" y2="32.108" gradientUnits="userSpaceOnUse">
<stop stop-color="#13B0F5"/>
<stop offset="1" stop-color="#CA24B4"/>
</linearGradient>
<linearGradient id="paint11_linear_3_20" x1="-0.199074" y1="48.281" x2="76.2549" y2="32.108" gradientUnits="userSpaceOnUse">
<stop stop-color="#13B0F5"/>
<stop offset="1" stop-color="#CA24B4"/>
</linearGradient>
</defs>
</svg>
